<svg
  viewBox="0 0 14 20"
  xmlns="http://www.w3.org/2000/svg"
  fill="currentColor"
>
  <path
    d="M2.36188 0.43881L3.43888 0.0948098C4.44688 -0.22719 5.52488 0.29381 5.95688 1.31181L6.81688 3.33981C7.19188 4.22281 6.98388 5.26181 6.30288 5.90781L4.40988 7.70581C4.52655 8.78181 4.88788 9.84081 5.49388 10.8828C6.07016 11.8907 6.84232 12.773 7.76488 13.4778L10.0409 12.7178C10.9029 12.4308 11.8419 12.7618 12.3709 13.5388L13.6029 15.3488C14.2189 16.2528 14.1079 17.4988 13.3449 18.2648L12.5269 19.0858C11.7129 19.9028 10.5509 20.1998 9.47488 19.8638C6.93622 19.0718 4.60188 16.7208 2.47188 12.8108C0.339218 8.89414 -0.413449 5.57148 0.213884 2.84281C0.477884 1.69481 1.29588 0.77981 2.36388 0.43881"
  />
</svg>
