<svg
  width="17"
  height="17"
  viewBox="0 0 17 17"
  xmlns="http://www.w3.org/2000/svg"
>
  <path
    d="M0.447157 0.0256489C0.525895 0.00236849 0.608449 -0.00516921 0.690101 0.00346645C0.771754 0.0121021 0.850904 0.0367418 0.92303 0.0759779C0.995157 0.115214 1.05884 0.168277 1.11046 0.232136C1.16207 0.295995 1.20059 0.369397 1.22382 0.448149L1.68216 2.00065H13.8947C15.428 2.00065 16.5988 3.43148 16.1572 4.92565L14.778 9.59232C14.4847 10.5865 13.5522 11.2506 12.5155 11.2506H4.88549C3.84882 11.2506 2.91716 10.5865 2.62299 9.59232L0.0254907 0.802316C-0.0213051 0.643519 -0.00318792 0.472643 0.0758662 0.32719C0.15492 0.181736 0.288453 0.0727557 0.447157 0.0256489ZM3.33299 14.3756C3.33299 13.8784 3.53053 13.4015 3.88217 13.0498C4.2338 12.6982 4.71071 12.5006 5.20799 12.5006C5.70527 12.5006 6.18218 12.6982 6.53382 13.0498C6.88545 13.4015 7.08299 13.8784 7.08299 14.3756C7.08299 14.8729 6.88545 15.3498 6.53382 15.7015C6.18218 16.0531 5.70527 16.2506 5.20799 16.2506C4.71071 16.2506 4.2338 16.0531 3.88217 15.7015C3.53053 15.3498 3.33299 14.8729 3.33299 14.3756ZM9.99966 14.3756C9.99966 14.1294 10.0482 13.8856 10.1424 13.6581C10.2366 13.4306 10.3747 13.2239 10.5488 13.0498C10.7229 12.8757 10.9296 12.7376 11.1571 12.6434C11.3846 12.5491 11.6284 12.5006 11.8747 12.5006C12.1209 12.5006 12.3647 12.5491 12.5922 12.6434C12.8197 12.7376 13.0264 12.8757 13.2005 13.0498C13.3746 13.2239 13.5127 13.4306 13.6069 13.6581C13.7012 13.8856 13.7497 14.1294 13.7497 14.3756C13.7497 14.8729 13.5521 15.3498 13.2005 15.7015C12.8489 16.0531 12.3719 16.2506 11.8747 16.2506C11.3774 16.2506 10.9005 16.0531 10.5488 15.7015C10.1972 15.3498 9.99966 14.8729 9.99966 14.3756Z"
    fill="currentColor"
  />
</svg>
